# xmcd
#
# Track frame offsets: 
#        150
#        15180
#        31142
#        46217
#        58342
#        74667
#        91660
#        107737
#        121302
#        140407
#        155065
#        167350
#        186832
#        199265
#        209135
#        222532
#        240722
#        255457
#        267175
#        285557
#
# Disc length: 3960 seconds
#
# Revision: 0
# Processed by: cddbd v1.5.1PL2 Copyright (c) Steve Scherf et al.
# Submitted via: ExactAudioCopy v0.95a5
#
DISCID=280f7614
DTITLE=Various Artist - 20 Most Requested Christian Favorites
DYEAR=2004
DGENRE=Christian-Country
TTITLE0=Bill Anderson - Will The Circle Be Unbroken
TTITLE1=Bill Anderson - Softly and Tenderly
TTITLE2=Bill Anderson - The Old Rugged Cross
TTITLE3=Bill Anderson - I Saw The Light
TTITLE4=Bill Anderson - I Can Do Nothing Alone
TTITLE5=Bill Anderson - Life's Railroad To Heaven
TTITLE6=Bill Anderson - Sweet Hour Of Prayer
TTITLE7=Bill Anderson - Where Could I Go (But To The Lord)
TTITLE8=Bill Anderson - Farther Along
TTITLE9=Bill Anderson - Love Lifted Me
TTITLE10=Brenda Lee - This Little Light
TTITLE11=Brenda Lee - What A Friend We Have In Jesus
TTITLE12=Brenda Lee - When The Roll Is Called Up Yonder
TTITLE13=Brenda Lee - Have A Talk With Jesus
TTITLE14=Brenda Lee - Amazing Grace
TTITLE15=Brenda Lee - Just A Closer Walk With Thee
TTITLE16=Brenda Lee - In The Garden
TTITLE17=Brenda Lee - Unclouded Day
TTITLE18=Brenda Lee - Precious Memories
TTITLE19=Brenda Lee - Jesus Loves Me
EXTD=
EXTT0=
EXTT1=
EXTT2=
EXTT3=
EXTT4=
EXTT5=
EXTT6=
EXTT7=
EXTT8=
EXTT9=
EXTT10=
EXTT11=
EXTT12=
EXTT13=
EXTT14=
EXTT15=
EXTT16=
EXTT17=
EXTT18=
EXTT19=
PLAYORDER=
